<?xml version="1.0" standalone="no"?><!DOCTYPE svg PUBLIC "-//W3C//DTD SVG 1.1//EN" "http://www.w3.org/Graphics/SVG/1.1/DTD/svg11.dtd"><svg t="1557123374755" class="icon" style="" viewBox="0 0 1479 1024" version="1.1" xmlns="http://www.w3.org/2000/svg" p-id="11678" xmlns:xlink="http://www.w3.org/1999/xlink" width="288.8671875" height="200"><defs><style type="text/css"></style></defs><path d="M1399.590541 855.528156h-107.494559a209.870331 209.870331 0 0 0-209.415328-181.432616c-107.722061 0-196.44773 79.170596-209.415327 181.432616h-81.104361a78.488091 78.488091 0 0 1-79.170596-77.805586V78.04105A78.488091 78.488091 0 0 1 792.160966 0.235464h607.429575A78.488091 78.488091 0 0 1 1478.761138 78.04105v699.68152a78.488091 78.488091 0 0 1-79.170597 77.805586z m-818.664916 0h-54.600411a209.870331 209.870331 0 0 0-209.415327-181.432616c-107.722061 0-196.44773 79.170596-209.415327 181.432616h-54.600412A52.325394 52.325394 0 0 1 0 803.657765V518.598118c0-103.51328 180.636361-362.865233 264.015738-362.865233h316.909887a52.325394 52.325394 0 0 1 52.780398 51.870391v596.054489a52.325394 52.325394 0 0 1-52.780398 51.870391zM475.478581 285.295111s-83.265627-3.753778-183.138879 0C249.56938 286.887623 131.950994 439.541273 131.950994 518.598118v25.935196h343.300085V285.295111zM316.909887 751.901126c72.800548 0 131.950994 58.012937 131.950994 129.562225s-59.150446 129.675977-131.950994 129.675977a130.813485 130.813485 0 0 1-132.064745-129.675977c0-71.66304 59.150446-129.675977 131.950994-129.675976z m772.368317 0c76.554327 0 138.662294 60.856708 138.662295 136.046024 0 75.075565-62.107968 136.046025-138.776046 136.046025a137.411035 137.411035 0 0 1-138.548543-136.046025c0-75.075565 62.107968-136.046025 138.662294-136.046024z" p-id="11679"></path></svg>