<?xml version="1.0" standalone="no"?><!DOCTYPE svg PUBLIC "-//W3C//DTD SVG 1.1//EN" "http://www.w3.org/Graphics/SVG/1.1/DTD/svg11.dtd"><svg t="1560914781444" class="icon" style="" viewBox="0 0 1024 1024" version="1.1" xmlns="http://www.w3.org/2000/svg" p-id="6263" xmlns:xlink="http://www.w3.org/1999/xlink" width="48" height="48"><defs><style type="text/css"></style></defs><path d="M890.39999999 496.58666667c-11.30666667-12.90666667-24.42666667-24-38.82666666-32.96-5.65333333-79.25333333-39.14666667-152.85333333-95.89333333-209.60000001-62.4-62.4-145.28-96.74666667-233.49333333-96.74666666-88.21333333 0-171.2 34.34666667-233.49333334 96.74666666-56.74666667 56.74666667-90.24 130.34666667-95.89333333 209.60000001-14.4 8.96-27.52 19.94666667-38.82666668 32.96-27.73333333 31.57333333-42.98666667 72.10666667-42.98666666 114.24s15.25333333 82.56 42.98666666 114.24c27.41333333 31.25333333 65.17333333 51.62666667 106.24000001 57.38666666 1.92 0.32 3.84 0.42666667 5.76 0.42666666 10.02666667 0 19.84-3.62666667 27.41333333-10.23999999 9.06666667-7.89333333 14.29333333-19.30666667 14.29333333-31.36V480.47999999c0-12.05333333-5.22666667-23.46666667-14.29333333-31.35999999-9.06666667-7.89333333-21.22666667-11.52-33.17333333-9.81333334-5.97333333 0.85333333-11.94666667 2.02666667-17.70666667 3.41333334 9.28-58.66666667 36.69333333-112.64 79.46666666-155.41333333 53.54666667-53.54666667 124.69333333-82.98666667 200.32000001-82.98666667s146.88 29.44 200.32 82.98666667c42.77333333 42.77333333 70.18666667 96.85333333 79.46666666 155.41333333-5.86666667-1.49333333-11.73333333-2.56-17.70666666-3.41333334-11.94666667-1.70666667-24.10666667 1.92-33.17333334 9.81333334-9.06666667 7.89333333-14.29333333 19.30666667-14.29333333 31.35999999v251.52c-0.32 0.32-0.74666667 0.64-1.06666667 1.06666667-53.86666667 61.76-131.73333333 97.17333333-213.54666666 97.17333334-13.01333333 0-23.46666667 10.45333333-23.46666667 23.46666667s10.45333333 23.46666667 23.46666667 23.46666666c89.17333333 0 174.18666667-36.05333333 236.26666667-99.52 6.08 3.30666667 13.01333333 5.12 20.05333333 5.12 1.92 0 3.84-0.10666667 5.76-0.42666666 41.06666667-5.65333333 78.72-26.02666667 106.24-57.38666667 27.73333333-31.57333333 42.98666667-72.10666667 42.98666666-114.24s-15.46666667-82.56-43.2-114.13333333z m-629.76-9.81333334v248.10666666c-27.62666667-5.22666667-52.8-19.52-71.46666666-40.85333332-20.16-23.04-31.36-52.58666667-31.36000001-83.2s11.09333333-60.26666667 31.36000001-83.20000001c18.66666667-21.33333333 43.94666667-35.73333333 71.46666666-40.85333333zM855.2 694.02666667c-18.66666667 21.33333333-43.84 35.62666667-71.46666667 40.85333332V486.77333333c27.62666667 5.22666667 52.8 19.52 71.46666667 40.85333333 20.16 23.04 31.36 52.58666667 31.35999999 83.20000001-0.10666667 30.61333333-11.2 60.16-31.35999999 83.2z" p-id="6264"></path></svg>